<svg xmlns="http://www.w3.org/2000/svg" xmlns:xlink="http://www.w3.org/1999/xlink" version="1.1" style="enable-background:new 0 0 1000 1000;" xml:space="preserve" width="796" height="549"><rect id="backgroundrect" width="100%" height="100%" x="0" y="0" fill="none" stroke="none"/>
<style type="text/css">
	.st0{fill:#FF1F1F;}
	.st1{fill:#EEF2F4;}
	.st2{enable-background:new    ;}
	.st3{fill:none;stroke:#CB0000;stroke-width:8;stroke-linecap:round;stroke-linejoin:round;stroke-miterlimit:10;}
	.st4{fill:#CB0000;stroke:#CB0000;stroke-width:8;stroke-linecap:round;stroke-linejoin:round;stroke-miterlimit:10;}
	.st5{fill:none;stroke:#340600;stroke-width:8;stroke-linecap:round;stroke-linejoin:round;stroke-miterlimit:10;}
	.st6{fill:#BFBFBF;}
	.st7{fill:#FFFFFF;}
	.st8{fill:none;stroke:#340600;stroke-width:6;stroke-linecap:round;stroke-linejoin:round;stroke-miterlimit:10;}
	.st9{fill:#606060;}
	.st10{fill:#1D4928;}
	.st11{fill:#C4C4C4;}
	.st12{opacity:0.77;fill:#C4C4C4;enable-background:new    ;}
	.st13{fill:#47A942;}
	.st14{fill:#81C347;}
	.st15{fill:#CADB2A;}
	.st16{fill:#26863F;}
	.st17{fill:#CCCC00;}
	.st18{fill:#245B34;}
	.st19{fill:#FF9E03;}
	.st20{fill:none;stroke:#340600;stroke-width:10;stroke-linecap:round;stroke-linejoin:round;stroke-miterlimit:10;}
	.st21{fill:none;stroke:#340600;stroke-width:3;stroke-linejoin:round;stroke-miterlimit:10;}
	.st22{fill:#06A0FF;}
	.st23{opacity:0.27;fill:#06A0FF;enable-background:new    ;}
	.st24{opacity:0.38;fill:#06A0FF;enable-background:new    ;}
	
		.st25{opacity:0.58;fill:none;stroke:#340600;stroke-width:8;stroke-linecap:round;stroke-linejoin:round;stroke-miterlimit:10;enable-background:new    ;}
</style>










<g class="currentLayer" style=""><title>Layer 1</title><g id="XMLID_226_" class="">
	<line id="XMLID_225_" class="st3" x1="40.00000762939453" y1="274.9000244140625" x2="207.60001373291016" y2="274.9000244140625"/>
	<path id="XMLID_224_" class="st4" d="M128.8000015258789,295.3000244140625 h-10.2 c-2.4,0 -4.3,-1.9 -4.3,-4.3 v-30.7 c0,-2.4 1.9,-4.3 4.3,-4.3 h10.2 c2.4,0 4.3,1.9 4.3,4.3 v30.7 C133.1000015258789,293.4000244140625 131.1000015258789,295.3000244140625 128.8000015258789,295.3000244140625 z"/>
	<line id="XMLID_223_" class="st3" x1="226.60001373291016" y1="451.4000244140625" x2="237.19998931884766" y2="480.60003662109375"/>
	<polygon id="XMLID_222_" class="st4" points="216.10001373291016,383.70001220703125 197.4000015258789,390.60003662109375 117.00000762939453,169.9000244140625 146.19998931884766,159.30001831054688 198.60001373291016,303.300048828125 "/>
	
		<rect id="XMLID_221_" x="308.0782686746988" y="392.0519787040671" transform="matrix(0.9397,-0.342,0.342,0.9397,-215.9395,155.6848) " class="st4" width="13.300000190734867" height="35.40000152587891"/>
	<circle id="XMLID_220_" class="st4" cx="212.60001373291016" cy="400" r="19.899999618530273"/>
	<polygon id="XMLID_219_" class="st4" points="31.50000762939453,383.70001220703125 50.29999542236328,390.60003662109375 130.5999984741211,169.9000244140625 101.50000762939453,159.30001831054688 49.00000762939453,303.300048828125 "/>
	
		<rect id="XMLID_218_" x="326.34562780697047" y="488.9218828904438" transform="matrix(0.342,-0.9397,0.9397,0.342,-555.695,586.9247) " class="st4" width="35.40000152587891" height="13.300000190734867"/>
	<line id="XMLID_217_" class="st3" x1="43.70212758789063" y1="519.0175637023925" x2="36.578922949218736" y2="549.2549765380859" points="null" d="null"/>
	<circle id="XMLID_216_" class="st4" cx="35.099998474121094" cy="400" r="19.899999618530273"/>
	<path id="XMLID_26_" class="st4" d="M139.3000015258789,221.1000244140625 c-10.3,0 -20.7,0 -31,0 c-5,0 -9.8,-3.8 -11,-8.8 c-5.5,-23.2 -9.3,-46.7 -8.9,-69.9 c0.2,-5.9 5.9,-11.1 11.8,-11.1 c15.8,0 31.6,0 47.4,0 c5.9,0 11.6,5.2 11.8,11.1 c0.4,23.2 -3.4,46.7 -8.9,69.9 C149.1000015258789,217.30002441406248 144.30000152587888,221.1000244140625 139.3000015258789,221.1000244140625 z"/>
	<rect id="XMLID_10_" x="105.70000457763672" y="37.20001220703125" class="st4" width="35.400001525878906" height="78.5999984741211"/>
	<rect id="XMLID_4_" x="114.0999984741211" y="115.80001831054688" class="st4" width="18.799999237060547" height="15.5"/>
</g><g id="XMLID_212_" class="">
	<path id="XMLID_211_" class="st4" d="M501.28745152587896,130.70285441406241 c-53.88022,0 -131.32061,0 -185.20083,0 c-14.41445,0 -27.138930000000002,9.443950000000001 -31.015919999999998,23.26194 c-4.8710900000000015,17.39675 -4.8710900000000015,35.48937 0,52.78671 c3.8769899999999997,13.81799 16.60147,23.26194 31.015919999999998,23.26194 h185.20083 c8.15162,0 14.81209,-6.26283 15.30914,-14.31504 c1.59056,-23.56017 1.59056,-47.21975 0,-70.77992 C515.4185115258788,138.57637441406246 509.3396615258789,131.57846441406247 501.28745152587896,130.70285441406241 z"/>
	<path id="XMLID_210_" class="st4" d="M365.4000015258789,227.7000244140625 c-4,-20.8 -4,-42.1 0,-62.9 c73.7,0 173.6,0 247.4,0 c0,14.4 -3.2,37.9 -11.8,54.3 c-2.8,5.3 -8.2,8.6 -14.2,8.6 H365.4000015258789 z"/>
	<rect id="XMLID_209_" x="500.3000259399414" y="219.20001220703125" class="st4" width="17.899999618530273" height="18.700000762939453"/>
</g><rect id="XMLID_206_" x="500.3000259399414" y="159.9000244140625" class="st4" width="17.899999618530273" height="18.700000762939453"/><g id="XMLID_20_" class="">
	<line id="XMLID_25_" class="st5" x1="30.00000762939453" y1="269.9000244140625" x2="197.60001373291016" y2="269.9000244140625"/>
	<path id="XMLID_151_" class="st6" d="M118.80000152587891,290.3000244140625 h-10.2 c-2.4,0 -4.3,-1.9 -4.3,-4.3 v-30.7 c0,-2.4 1.9,-4.3 4.3,-4.3 h10.2 c2.4,0 4.3,1.9 4.3,4.3 v30.7 C123.1000015258789,288.4000244140625 121.1000015258789,290.3000244140625 118.80000152587891,290.3000244140625 z"/>
	<path id="XMLID_245_" class="st7" d="M106.1000015258789,251.7000244140625 c-1.1,0.8 -1.9,2.1 -1.9,3.6 v30.7 c0,1.5 0.8,2.8 1.9,3.6 c3.2,-2.9 5.6,-10.3 5.6,-18.9 C111.70000152587892,262.0000244140625 109.4000015258789,254.6000244140625 106.1000015258789,251.7000244140625 z"/>
	<path id="XMLID_23_" class="st8" d="M118.80000152587891,290.3000244140625 h-10.2 c-2.4,0 -4.3,-1.9 -4.3,-4.3 v-30.7 c0,-2.4 1.9,-4.3 4.3,-4.3 h10.2 c2.4,0 4.3,1.9 4.3,4.3 v30.7 C123.1000015258789,288.4000244140625 121.1000015258789,290.3000244140625 118.80000152587891,290.3000244140625 z"/>
	<polygon id="XMLID_9_" class="st7" points="206.10001373291016,378.70001220703125 187.4000015258789,385.60003662109375 107.00000762939453,164.9000244140625 136.20000457763672,154.30001831054688 188.60001373291016,298.300048828125 "/>
	<polygon id="XMLID_237_" class="st6" points="188.60001373291016,298.300048828125 136.20000457763672,154.30001831054688 128.20000457763672,157.20001220703125 179.60001373291016,298.300048828125 197.10001373291016,378.70001220703125 186.29999542236328,382.70001220703125 187.4000015258789,385.60003662109375 206.10001373291016,378.70001220703125 "/>
	<path id="XMLID_231_" class="st6" d="M137.20000152587892,153.30002441406248 L108.0000015258789,163.9000244140625 l22.6,62.2 c10,-0.2 19,-7.3 21.4,-17.2 c0.7000000000000001,-3.1 1.4,-6.1 2.1,-9.1 L137.20000152587892,153.30002441406248 z"/>
	<line id="XMLID_11_" class="st5" x1="187.45560152587893" y1="25.828136621093734" x2="158.25558931884768" y2="36.42811220703123" points="null" d="null"/>
	
		<rect id="XMLID_68_" x="298.07826867469873" y="387.0519787040671" transform="matrix(0.9397,-0.342,0.342,0.9397,-214.8324,151.9633) " class="st6" width="13.300000190734867" height="35.40000152587891"/>
	<polygon id="XMLID_14_" class="st5" points="206.10001373291016,378.70001220703125 187.4000015258789,385.60003662109375 107.00000762939453,164.9000244140625 136.20000457763672,154.30001831054688 188.60001373291016,298.300048828125 "/>
	
		<rect id="XMLID_12_" x="203.29999542236328" y="410.4000244140625" class="st5" width="13.300000190734863" height="35.400001525878906"/>
	<circle id="XMLID_62_" class="st7" cx="202.60001373291016" cy="395" r="19.899999618530273"/>
	<path id="XMLID_233_" class="st6" d="M207.70000152587892,386.8000244140625 c-10.3,3.8 -15.7,15.2 -11.9,25.6 c0.2,0.6000000000000001 0.4,1.1 0.7000000000000001,1.6 c4.1,1.3 8.6,1.3 12.9,-0.2 c10.3,-3.8 15.7,-15.2 11.9,-25.6 c-0.2,-0.6000000000000001 -0.4,-1.1 -0.7000000000000001,-1.6 C216.6000015258789,385.20002441406245 212.1000015258789,385.20002441406245 207.70000152587892,386.8000244140625 z"/>
	<circle id="XMLID_13_" class="st5" cx="202.60001373291016" cy="395" r="19.899999618530273"/>
	<polygon id="XMLID_8_" class="st7" points="21.50000762939453,378.70001220703125 40.29999542236328,385.60003662109375 120.5999984741211,164.9000244140625 91.50000762939453,154.30001831054688 39.00000762939453,298.300048828125 "/>
	<polygon id="XMLID_228_" class="st7" points="21.50000762939453,378.70001220703125 40.29999542236328,385.60003662109375 120.5999984741211,164.9000244140625 91.50000762939453,154.30001831054688 39.00000762939453,298.300048828125 "/>
	<polygon id="XMLID_232_" class="st6" points="91.50000762939453,154.30001831054688 90.4000015258789,157.20001220703125 111.5999984741211,164.9000244140625 32.29999542236328,382.70001220703125 40.29999542236328,385.60003662109375 120.5999984741211,164.9000244140625 "/>
	<path id="XMLID_230_" class="st6" d="M93.5000015258789,153.30002441406248 l-16.9,46.5 c0.6000000000000001,3 1.3,6 2.1,9.1 c2.4,9.8 11.4,16.9 21.4,17.1 l22.6,-62.2 L93.5000015258789,153.30002441406248 z"/>
	<polygon id="XMLID_18_" class="st5" points="21.50000762939453,378.70001220703125 40.29999542236328,385.60003662109375 120.5999984741211,164.9000244140625 91.50000762939453,154.30001831054688 39.00000762939453,298.300048828125 "/>
	
		<rect id="XMLID_153_" x="316.34562780697047" y="483.9218828904436" transform="matrix(0.342,-0.9397,0.9397,0.342,-557.5764,574.2377) " class="st6" width="35.40000152587891" height="13.300000190734867"/>
	
		<rect id="XMLID_16_" x="0" y="421.5" class="st5" width="35.400001525878906" height="13.300000190734863"/>
	<line id="XMLID_15_" class="st5" x1="11" y1="446.4000244140625" x2="0.40000152587890625" y2="475.60003662109375"/>
	
		<ellipse id="XMLID_152_" transform="matrix(0.03327796,-0.9994,0.9994,0.03327796,-517.6545,769.0226) " class="st7" cx="391.88868474059416" cy="530.0011147705208" rx="19.899999618530273" ry="19.899999618530273"/>
	
		<ellipse id="XMLID_227_" transform="matrix(0.03327796,-0.9994,0.9994,0.03327796,-517.6545,769.0226) " class="st7" cx="391.88868474059416" cy="530.0011147705208" rx="19.899999618530273" ry="19.899999618530273"/>
	<path id="XMLID_235_" class="st6" d="M43.80000152587891,401.8000244140625 c1.9,-5.2 1.5,-10.6 -0.7000000000000001,-15.2 c-10.2,-3.3 -21.2,2 -24.8,12.1 c-1.9,5.2 -1.5,10.6 0.7000000000000001,15.2 C29.100001525878895,417.20002441406245 40.100001525878895,411.9000244140625 43.80000152587891,401.8000244140625 z"/>
	
		<ellipse id="XMLID_17_" class="st5" cx="25.099998474121094" cy="395" rx="19.899999618530273" ry="19.899999618530273"/>
	<path id="XMLID_183_" class="st6" d="M129.3000015258789,216.1000244140625 c-10.3,0 -20.7,0 -31,0 c-5,0 -9.8,-3.8 -11,-8.8 c-5.5,-23.2 -9.3,-46.7 -8.9,-69.9 c0.2,-5.9 5.9,-11.1 11.8,-11.1 c15.8,0 31.6,0 47.4,0 c5.9,0 11.6,5.2 11.8,11.1 c0.4,23.2 -3.4,46.7 -8.9,69.9 C139.1000015258789,212.30002441406248 134.3000015258789,216.1000244140625 129.3000015258789,216.1000244140625 z"/>
	<path id="XMLID_238_" class="st7" d="M86.9000015258789,207.30002441406248 c-5.5,-23.2 -9.3,-46.7 -8.9,-69.9 c0.2,-5.9 5.9,-11.1 11.8,-11.1 c11.3,0 22.5,0 33.8,0 c2.7,12.4 2.7,25.8 -0.7000000000000001,39.1 c-5.1,20.2 -11.7,47.8 -32.3,47.8 C88.80000152587891,211.7000244140625 87.5000015258789,209.6000244140625 86.9000015258789,207.30002441406248 z"/>
	<path id="XMLID_19_" class="st5" d="M129.3000015258789,216.1000244140625 c-10.3,0 -20.7,0 -31,0 c-5,0 -9.8,-3.8 -11,-8.8 c-5.5,-23.2 -9.3,-46.7 -8.9,-69.9 c0.2,-5.9 5.9,-11.1 11.8,-11.1 c15.8,0 31.6,0 47.4,0 c5.9,0 11.6,5.2 11.8,11.1 c0.4,23.2 -3.4,46.7 -8.9,69.9 C139.1000015258789,212.30002441406248 134.3000015258789,216.1000244140625 129.3000015258789,216.1000244140625 z"/>
	<rect id="XMLID_184_" x="95.70000457763672" y="32.20001220703125" class="st6" width="35.400001525878906" height="78.5999984741211"/>
	<rect id="XMLID_239_" x="95.70000457763672" y="32.20001220703125" class="st6" width="10" height="78.5999984741211"/>
	<rect id="XMLID_240_" x="118.70000457763672" y="32.20001220703125" class="st6" width="12.5" height="78.5999984741211"/>
	<rect id="XMLID_21_" x="95.70000457763672" y="32.20001220703125" class="st5" width="35.400001525878906" height="78.5999984741211"/>
	<rect id="XMLID_199_" x="104.0999984741211" y="110.80001831054688" class="st9" width="18.799999237060547" height="15.5"/>
	<rect id="XMLID_22_" x="104.0999984741211" y="110.80001831054688" class="st5" width="18.799999237060547" height="15.5"/>
	<line id="XMLID_24_" class="st8" x1="107.00000762939453" y1="46.20001220703125" x2="107.00000762939453" y2="91.60003662109375"/>
	<circle id="XMLID_241_" class="st9" cx="115.29999542236328" cy="170.9000244140625" r="10.5"/>
	<circle id="XMLID_185_" class="st5" cx="115.29999542236328" cy="170.9000244140625" r="10.5"/>
</g><g id="XMLID_1_" class="">
	<path id="XMLID_190_" class="st10" d="M478.3000015258789,134.30002441406248 c-54.2,0 -132.1,0 -186.3,0 c-14.5,0 -27.3,9.5 -31.2,23.4 c-4.9,17.5 -4.9,35.7 0,53.1 c3.9,13.9 16.7,23.4 31.2,23.4 h186.3 c8.2,0 14.9,-6.3 15.4,-14.4 c1.6,-23.7 1.6,-47.5 0,-71.2 C493.20000152587886,140.6000244140625 486.4000015258789,134.30002441406248 478.3000015258789,134.30002441406248 z"/>
	<path id="XMLID_34_" class="st5" d="M478.3000015258789,134.30002441406248 c-54.2,0 -132.1,0 -186.3,0 c-14.5,0 -27.3,9.5 -31.2,23.4 c-4.9,17.5 -4.9,35.7 0,53.1 c3.9,13.9 16.7,23.4 31.2,23.4 h186.3 c8.2,0 14.9,-6.3 15.4,-14.4 c1.6,-23.7 1.6,-47.5 0,-71.2 C493.20000152587886,140.6000244140625 486.4000015258789,134.30002441406248 478.3000015258789,134.30002441406248 z"/>
	<path id="XMLID_29_" class="st5" d="M478.3000015258789,134.30002441406248 c-54.2,0 -132.1,0 -186.3,0 c-14.5,0 -27.3,9.5 -31.2,23.4 c-4.9,17.5 -4.9,35.7 0,53.1 c3.9,13.9 16.7,23.4 31.2,23.4 h186.3 c8.2,0 14.9,-6.3 15.4,-14.4 c1.6,-23.7 1.6,-47.5 0,-71.2 C493.20000152587886,140.6000244140625 486.4000015258789,134.30002441406248 478.3000015258789,134.30002441406248 z"/>
	<path id="XMLID_189_" class="st11" d="M360.4000015258789,215.7000244140625 c-4,-20.8 -4,-42.1 0,-62.9 c73.7,0 173.6,0 247.4,0 c0,14.4 -3.2,37.9 -11.8,54.3 c-2.8,5.3 -8.2,8.6 -14.2,8.6 H360.4000015258789 z"/>
	<path id="XMLID_247_" class="st12" d="M601.3000015258789,152.80002441406248 c-1,14.1 -4.4,32.6 -11.5,46.3 c-2.8,5.3 -8.2,8.6 -14.2,8.6 H359.00000152587893 c0.4,2.7 0.8,5.4 1.3,8.1 h221.4 c6,0 11.4,-3.3 14.2,-8.6 c8.6,-16.4 11.8,-39.9 11.8,-54.3 C605.600001525879,152.80002441406248 603.5000015258789,152.80002441406248 601.3000015258789,152.80002441406248 z"/>
	<path id="XMLID_35_" class="st5" d="M360.4000015258789,215.7000244140625 c-4,-20.8 -4,-42.1 0,-62.9 c73.7,0 173.6,0 247.4,0 c0,14.4 -3.2,37.9 -11.8,54.3 c-2.8,5.3 -8.2,8.6 -14.2,8.6 H360.4000015258789 z"/>
	<path id="XMLID_40_" class="st7" d="M606.9000015258789,166.6000244140625 c0.5,-5 0.8,-9.8 0.8,-13.8 c-73.7,0 -173.6,0 -247.4,0 c-0.9,4.6 -1.5,9.2 -2,13.8 C433.8000015258789,166.6000244140625 530.9000015258789,166.6000244140625 606.9000015258789,166.6000244140625 z"/>
	<path id="XMLID_192_" class="st5" d="M606.9000015258789,166.6000244140625 c0.5,-5 0.8,-9.8 0.8,-13.8 c-73.7,0 -173.6,0 -247.4,0 c-0.9,4.6 -1.5,9.2 -2,13.8 C433.8000015258789,166.6000244140625 530.9000015258789,166.6000244140625 606.9000015258789,166.6000244140625 z"/>
	<g id="XMLID_41_">
		<g id="XMLID_58_">
			<line id="XMLID_59_" class="st5" x1="367.69998931884766" y1="168.60003662109375" x2="353.7999954223633" y2="215.70001220703125"/>
		</g>
		<g id="XMLID_56_">
			<line id="XMLID_57_" class="st5" x1="393.9000015258789" y1="168.60003662109375" x2="380.00000762939453" y2="215.70001220703125"/>
		</g>
		<g id="XMLID_54_">
			<line id="XMLID_55_" class="st5" x1="419.9999771118164" y1="168.60003662109375" x2="406.10001373291016" y2="215.70001220703125"/>
		</g>
		<g id="XMLID_52_">
			<line id="XMLID_53_" class="st5" x1="446.19998931884766" y1="168.60003662109375" x2="432.3000259399414" y2="215.70001220703125"/>
		</g>
		<g id="XMLID_50_">
			<line id="XMLID_51_" class="st5" x1="472.4000015258789" y1="168.60003662109375" x2="458.4999771118164" y2="215.70001220703125"/>
		</g>
		<g id="XMLID_47_">
			<line id="XMLID_48_" class="st5" x1="498.4999771118164" y1="168.60003662109375" x2="484.60001373291016" y2="215.70001220703125"/>
		</g>
		<g id="XMLID_45_">
			<line id="XMLID_46_" class="st5" x1="524.6999893188477" y1="168.60003662109375" x2="510.8000259399414" y2="215.70001220703125"/>
		</g>
		<g id="XMLID_43_">
			<line id="XMLID_44_" class="st5" x1="550.9000015258789" y1="168.60003662109375" x2="536.9999771118164" y2="215.70001220703125"/>
		</g>
		<g id="XMLID_39_">
			<line id="XMLID_42_" class="st5" x1="576.9999771118164" y1="168.60003662109375" x2="563.1000137329102" y2="215.70001220703125"/>
		</g>
	</g>
	<g id="XMLID_37_">
		<path id="XMLID_191_" class="st13" d="M494.70000152587886,168.6000244140625 c-0.2,-6.6 -0.5,-13.3 -1,-19.9 c-0.5,-8.1 -7.3,-14.4 -15.4,-14.4 c-54.2,0 -132.1,0 -186.3,0 c-14.5,0 -27.3,9.5 -31.2,23.4 c-1,3.6 -1.8,7.2 -2.4,10.9 H494.70000152587886 z"/>
		<path id="XMLID_243_" class="st14" d="M295.4000015258789,148.7000244140625 c54.2,0 132.1,0 186.3,0 c5,0 9.4,2.4 12.3,6 c-0.1,-1.7000000000000002 -0.2,-3.4 -0.30000000000000004,-5.1 c-0.5,-8.1 -7.3,-14.4 -15.4,-14.4 c-54.2,0 -132.1,0 -186.3,0 c-14.5,0 -27.3,9.5 -31.2,23.4 c-1,3.6 -1.8,7.2 -2.4,10.9 h6.7 C269.7000015258789,157.1000244140625 281.8000015258789,148.7000244140625 295.4000015258789,148.7000244140625 z"/>
		<path id="XMLID_250_" class="st15" d="M493.70000152587886,149.7000244140625 c-0.5,-8.1 -7.3,-14.4 -15.4,-14.4 c-54.2,0 -132.1,0 -186.3,0 c-14.5,0 -27.3,9.5 -31.2,23.4 c-1,3.6 -1.8,7.2 -2.4,10.9 h0.2 c0.30000000000000004,-1.2 0.6000000000000001,-2.4 0.9,-3.6 c3.9,-13.9 16.7,-23.4 31.2,-23.4 c54.2,0 132.1,0 186.3,0 c6.4,0 11.9,3.8 14.2,9.4 c1,0.8 2,1.7000000000000002 2.8,2.8 C493.9000015258789,153.00002441406252 493.8000015258789,151.4000244140625 493.70000152587886,149.7000244140625 z"/>
		<path id="XMLID_36_" class="st5" d="M494.70000152587886,168.6000244140625 c-0.2,-6.6 -0.5,-13.3 -1,-19.9 c-0.5,-8.1 -7.3,-14.4 -15.4,-14.4 c-54.2,0 -132.1,0 -186.3,0 c-14.5,0 -27.3,9.5 -31.2,23.4 c-1,3.6 -1.8,7.2 -2.4,10.9 H494.70000152587886 z"/>
		<path id="XMLID_193_" class="st13" d="M493.70000152587886,219.9000244140625 c0.5,-7.2 0.8,-14.5 1,-21.7 l-5.4,-3.4 l-14.9,9.5 l-14.9,-9.5 l-14.9,9.5 l-14.9,-9.5 l-14.9,9.5 l-14.9,-9.5 l-14.9,9.5 l-14.9,-9.5 l-14.9,9.5 l-14.9,-9.5 l-14.9,9.5 l-14.9,-9.5 l-14.9,9.5 l-14.9,-9.5 l-14.9,9.5 l-7.7,-4.9 c0.6000000000000001,3.9 1.4,7.7 2.5,11.5 c3.9,13.9 16.7,23.4 31.2,23.4 h186.3 C486.4000015258789,234.2000244140625 493.20000152587886,227.9000244140625 493.70000152587886,219.9000244140625 z"/>
		<path id="XMLID_244_" class="st16" d="M493.9000015258789,197.6000244140625 c-0.2,3.8 -0.4,7.6 -0.6000000000000001,11.4 c-0.5,8.1 -7.3,14.4 -15.4,14.4 H291.50000152587893 c-14.2,0 -26.8,-9.2 -31,-22.6 l-2.3,-1.5 c0.6000000000000001,3.9 1.4,7.7 2.5,11.5 c3.9,13.9 16.7,23.4 31.2,23.4 h186.3 c8.2,0 14.9,-6.3 15.4,-14.4 c0.5,-7.2 0.8,-14.5 1,-21.7 L493.9000015258789,197.6000244140625 z"/>
		<path id="XMLID_38_" class="st5" d="M493.70000152587886,219.9000244140625 c0.5,-7.2 0.8,-14.5 1,-21.7 l-5.4,-3.4 l-14.9,9.5 l-14.9,-9.5 l-14.9,9.5 l-14.9,-9.5 l-14.9,9.5 l-14.9,-9.5 l-14.9,9.5 l-14.9,-9.5 l-14.9,9.5 l-14.9,-9.5 l-14.9,9.5 l-14.9,-9.5 l-14.9,9.5 l-14.9,-9.5 l-14.9,9.5 l-7.7,-4.9 c0.6000000000000001,3.9 1.4,7.7 2.5,11.5 c3.9,13.9 16.7,23.4 31.2,23.4 h186.3 C486.4000015258789,234.2000244140625 493.20000152587886,227.9000244140625 493.70000152587886,219.9000244140625 z"/>
	</g>
	<circle id="XMLID_194_" class="st17" cx="366.2999954223633" cy="185.10003662109375" r="25.799999237060547"/>
	<circle id="XMLID_33_" class="st5" cx="366.2999954223633" cy="185.10003662109375" r="25.799999237060547"/>
	<rect id="XMLID_195_" x="495.3000259399414" y="207.20001220703125" class="st18" width="17.899999618530273" height="18.700000762939453"/>
	<rect id="XMLID_196_" x="495.3000259399414" y="207.20001220703125" class="st5" width="17.899999618530273" height="18.700000762939453"/>
	<rect id="XMLID_198_" x="495.3000259399414" y="148.9000244140625" class="st18" width="17.899999618530273" height="18.700000762939453"/>
	<rect id="XMLID_197_" x="495.3000259399414" y="148.9000244140625" class="st5" width="17.899999618530273" height="18.700000762939453"/>
	<line id="XMLID_200_" class="st5" x1="341.50000762939453" y1="190.60003662109375" x2="382.19998931884766" y2="165.60003662109375"/>
	<line id="XMLID_201_" class="st5" x1="351.4000015258789" y1="204.60003662109375" x2="392.00000762939453" y2="179.60003662109375"/>
</g><g id="svg_1" class="">
	<path id="XMLID_205_" class="st4" d="M779.600001525879,97.70002441406251 H279.2000015258789 c-9.2,0 -16.7,-7.5 -16.7,-16.7 v-51.5 c0,-9.2 7.5,-16.7 16.7,-16.7 h500.4 c9.2,0 16.7,7.5 16.7,16.7 v51.5 C796.3000015258789,90.30002441406248 788.8000015258789,97.70002441406251 779.600001525879,97.70002441406251 z"/>
	<path id="XMLID_188_" class="st19" d="M767.2000015258789,84.9000244140625 H266.8000015258789 c-9.2,0 -16.7,-7.5 -16.7,-16.7 v-51.5 c0,-9.2 7.5,-16.7 16.7,-16.7 h500.4 c9.2,0 16.7,7.5 16.7,16.7 v51.5 C783.9000015258789,77.4000244140625 776.4000015258789,84.9000244140625 767.2000015258789,84.9000244140625 z"/>
	<path id="XMLID_27_" class="st5" d="M767.2000015258789,84.9000244140625 H266.8000015258789 c-9.2,0 -16.7,-7.5 -16.7,-16.7 v-51.5 c0,-9.2 7.5,-16.7 16.7,-16.7 h500.4 c9.2,0 16.7,7.5 16.7,16.7 v51.5 C783.9000015258789,77.4000244140625 776.4000015258789,84.9000244140625 767.2000015258789,84.9000244140625 z"/>
	<line id="XMLID_3_" class="st20" x1="278.2999954223633" y1="43.60003662109375" x2="749.6999893188477" y2="43.60003662109375"/>
	<g id="XMLID_2_">
		<g id="XMLID_122_">
			<line id="XMLID_127_" class="st21" x1="748.9000015258789" y1="0.000030517578125" x2="748.9000015258789" y2="17.10003662109375"/>
		</g>
		<g id="XMLID_116_">
			<line id="XMLID_121_" class="st21" x1="702.4999771118164" y1="0.000030517578125" x2="702.4999771118164" y2="17.10003662109375"/>
			<line id="XMLID_120_" class="st21" x1="714.6999893188477" y1="0.000030517578125" x2="714.6999893188477" y2="8.9000244140625"/>
			<line id="XMLID_119_" class="st21" x1="737.1000137329102" y1="0.000030517578125" x2="737.1000137329102" y2="8.9000244140625"/>
			<line id="XMLID_118_" class="st21" x1="725.9000015258789" y1="0.000030517578125" x2="725.9000015258789" y2="12.4000244140625"/>
		</g>
		<g id="XMLID_110_">
			<line id="XMLID_115_" class="st21" x1="656.1999893188477" y1="0.000030517578125" x2="656.1999893188477" y2="17.10003662109375"/>
			<line id="XMLID_114_" class="st21" x1="668.4000015258789" y1="0.000030517578125" x2="668.4000015258789" y2="8.9000244140625"/>
			<line id="XMLID_113_" class="st21" x1="690.6999893188477" y1="0.000030517578125" x2="690.6999893188477" y2="8.9000244140625"/>
			<line id="XMLID_112_" class="st21" x1="679.4999771118164" y1="0.000030517578125" x2="679.4999771118164" y2="12.4000244140625"/>
		</g>
		<g id="XMLID_104_">
			<line id="XMLID_109_" class="st21" x1="609.8000259399414" y1="0.000030517578125" x2="609.8000259399414" y2="17.10003662109375"/>
			<line id="XMLID_108_" class="st21" x1="621.9999771118164" y1="0.000030517578125" x2="621.9999771118164" y2="8.9000244140625"/>
			<line id="XMLID_107_" class="st21" x1="644.3000259399414" y1="0.000030517578125" x2="644.3000259399414" y2="8.9000244140625"/>
			<line id="XMLID_106_" class="st21" x1="633.1000137329102" y1="0.000030517578125" x2="633.1000137329102" y2="12.4000244140625"/>
		</g>
		<g id="XMLID_97_">
			<line id="XMLID_103_" class="st21" x1="563.4000015258789" y1="0.000030517578125" x2="563.4000015258789" y2="17.10003662109375"/>
			<line id="XMLID_102_" class="st21" x1="575.6000137329102" y1="0.000030517578125" x2="575.6000137329102" y2="8.9000244140625"/>
			<line id="XMLID_101_" class="st21" x1="597.9000015258789" y1="0.000030517578125" x2="597.9000015258789" y2="8.9000244140625"/>
			<line id="XMLID_100_" class="st21" x1="586.6999893188477" y1="0.000030517578125" x2="586.6999893188477" y2="12.4000244140625"/>
		</g>
		<g id="XMLID_91_">
			<line id="XMLID_96_" class="st21" x1="516.9999771118164" y1="0.000030517578125" x2="516.9999771118164" y2="17.10003662109375"/>
			<line id="XMLID_95_" class="st21" x1="529.1999893188477" y1="0.000030517578125" x2="529.1999893188477" y2="8.9000244140625"/>
			<line id="XMLID_94_" class="st21" x1="551.4999771118164" y1="0.000030517578125" x2="551.4999771118164" y2="8.9000244140625"/>
			<line id="XMLID_93_" class="st21" x1="540.4000015258789" y1="0.000030517578125" x2="540.4000015258789" y2="12.4000244140625"/>
		</g>
		<g id="XMLID_85_">
			<line id="XMLID_90_" class="st21" x1="470.60001373291016" y1="0.000030517578125" x2="470.60001373291016" y2="17.10003662109375"/>
			<line id="XMLID_89_" class="st21" x1="482.8000259399414" y1="0.000030517578125" x2="482.8000259399414" y2="8.9000244140625"/>
			<line id="XMLID_88_" class="st21" x1="505.10001373291016" y1="0.000030517578125" x2="505.10001373291016" y2="8.9000244140625"/>
			<line id="XMLID_87_" class="st21" x1="493.9999771118164" y1="0.000030517578125" x2="493.9999771118164" y2="12.4000244140625"/>
		</g>
		<g id="XMLID_79_">
			<line id="XMLID_84_" class="st21" x1="424.19998931884766" y1="0.000030517578125" x2="424.19998931884766" y2="17.10003662109375"/>
			<line id="XMLID_83_" class="st21" x1="436.4000015258789" y1="0.000030517578125" x2="436.4000015258789" y2="8.9000244140625"/>
			<line id="XMLID_82_" class="st21" x1="458.69998931884766" y1="0.000030517578125" x2="458.69998931884766" y2="8.9000244140625"/>
			<line id="XMLID_81_" class="st21" x1="447.60001373291016" y1="0.000030517578125" x2="447.60001373291016" y2="12.4000244140625"/>
		</g>
		<g id="XMLID_73_">
			<line id="XMLID_78_" class="st21" x1="377.7999954223633" y1="0.000030517578125" x2="377.7999954223633" y2="17.10003662109375"/>
			<line id="XMLID_77_" class="st21" x1="390.00000762939453" y1="0.000030517578125" x2="390.00000762939453" y2="8.9000244140625"/>
			<line id="XMLID_76_" class="st21" x1="412.4000015258789" y1="0.000030517578125" x2="412.4000015258789" y2="8.9000244140625"/>
			<line id="XMLID_75_" class="st21" x1="401.19998931884766" y1="0.000030517578125" x2="401.19998931884766" y2="12.4000244140625"/>
		</g>
		<g id="XMLID_67_">
			<line id="XMLID_72_" class="st21" x1="331.4000015258789" y1="0.000030517578125" x2="331.4000015258789" y2="17.10003662109375"/>
			<line id="XMLID_71_" class="st21" x1="343.60001373291016" y1="0.000030517578125" x2="343.60001373291016" y2="8.9000244140625"/>
			<line id="XMLID_70_" class="st21" x1="366.00000762939453" y1="0.000030517578125" x2="366.00000762939453" y2="8.9000244140625"/>
			<line id="XMLID_69_" class="st21" x1="354.7999954223633" y1="0.000030517578125" x2="354.7999954223633" y2="12.4000244140625"/>
		</g>
		<g id="XMLID_61_">
			<line id="XMLID_66_" class="st21" x1="285.00000762939453" y1="0.000030517578125" x2="285.00000762939453" y2="17.10003662109375"/>
			<line id="XMLID_65_" class="st21" x1="297.19998931884766" y1="0.000030517578125" x2="297.19998931884766" y2="8.9000244140625"/>
			<line id="XMLID_64_" class="st21" x1="319.60001373291016" y1="0.000030517578125" x2="319.60001373291016" y2="8.9000244140625"/>
			<line id="XMLID_63_" class="st21" x1="308.4000015258789" y1="0.000030517578125" x2="308.4000015258789" y2="12.4000244140625"/>
		</g>
	</g>
</g><g id="svg_2" class="">
	<path id="XMLID_202_" class="st4" d="M786.9000015258789,209.30002441406248 L435.10000152587895,453.5000244140625 c-4.9,3.3 -2.6,11 3.3,11 h353.9 c2.2,0 4,-1.8 4,-4 V214.30002441406248 C796.3000015258789,209.50002441406252 790.9000015258789,206.7000244140625 786.9000015258789,209.30002441406248 zM582.8000015258789,414.70002441406245 L746.4000015258789,296.4000244140625 v118.3 H582.8000015258789 z"/>
	<g id="XMLID_28_">
		<path id="XMLID_155_" class="st19" d="M775.9000015258789,197.30002441406248 L424.10000152587895,441.5000244140625 c-4.9,3.3 -2.6,11 3.3,11 h353.9 c2.2,0 4,-1.8 4,-4 V202.30002441406248 C785.3000015258789,197.50002441406252 779.9000015258789,194.7000244140625 775.9000015258789,197.30002441406248 zM571.8000015258789,402.70002441406245 L735.4000015258789,284.4000244140625 v118.3 H571.8000015258789 z"/>
		<path id="XMLID_32_" class="st5" d="M775.9000015258789,197.30002441406248 L424.10000152587895,441.5000244140625 c-4.9,3.3 -2.6,11 3.3,11 h353.9 c2.2,0 4,-1.8 4,-4 V202.30002441406248 C785.3000015258789,197.50002441406252 779.9000015258789,194.7000244140625 775.9000015258789,197.30002441406248 zM571.8000015258789,402.70002441406245 L735.4000015258789,284.4000244140625 v118.3 H571.8000015258789 z"/>
		<g id="XMLID_6_">
			<g id="XMLID_150_">
				<line id="XMLID_154_" class="st21" x1="764.1999893188477" y1="452.300048828125" x2="764.1999893188477" y2="435.800048828125"/>
			</g>
			<g id="XMLID_145_">
				<line id="XMLID_149_" class="st21" x1="719.1999893188477" y1="452.300048828125" x2="719.1999893188477" y2="435.800048828125"/>
				<line id="XMLID_148_" class="st21" x1="730.9999771118164" y1="452.300048828125" x2="730.9999771118164" y2="443.70001220703125"/>
				<line id="XMLID_147_" class="st21" x1="752.6999893188477" y1="452.300048828125" x2="752.6999893188477" y2="443.70001220703125"/>
				<line id="XMLID_146_" class="st21" x1="741.8000259399414" y1="452.300048828125" x2="741.8000259399414" y2="440.300048828125"/>
			</g>
			<g id="XMLID_140_">
				<line id="XMLID_144_" class="st21" x1="674.1999893188477" y1="452.300048828125" x2="674.1999893188477" y2="435.800048828125"/>
				<line id="XMLID_143_" class="st21" x1="685.9999771118164" y1="452.300048828125" x2="685.9999771118164" y2="443.70001220703125"/>
				<line id="XMLID_142_" class="st21" x1="707.6999893188477" y1="452.300048828125" x2="707.6999893188477" y2="443.70001220703125"/>
				<line id="XMLID_141_" class="st21" x1="696.8000259399414" y1="452.300048828125" x2="696.8000259399414" y2="440.300048828125"/>
			</g>
			<g id="XMLID_135_">
				<line id="XMLID_139_" class="st21" x1="629.1999893188477" y1="452.300048828125" x2="629.1999893188477" y2="435.800048828125"/>
				<line id="XMLID_138_" class="st21" x1="640.9999771118164" y1="452.300048828125" x2="640.9999771118164" y2="443.70001220703125"/>
				<line id="XMLID_137_" class="st21" x1="662.6999893188477" y1="452.300048828125" x2="662.6999893188477" y2="443.70001220703125"/>
				<line id="XMLID_136_" class="st21" x1="651.8000259399414" y1="452.300048828125" x2="651.8000259399414" y2="440.300048828125"/>
			</g>
			<g id="XMLID_130_">
				<line id="XMLID_134_" class="st21" x1="584.1999893188477" y1="452.300048828125" x2="584.1999893188477" y2="435.800048828125"/>
				<line id="XMLID_133_" class="st21" x1="595.9999771118164" y1="452.300048828125" x2="595.9999771118164" y2="443.70001220703125"/>
				<line id="XMLID_132_" class="st21" x1="617.6999893188477" y1="452.300048828125" x2="617.6999893188477" y2="443.70001220703125"/>
				<line id="XMLID_131_" class="st21" x1="606.8000259399414" y1="452.300048828125" x2="606.8000259399414" y2="440.300048828125"/>
			</g>
			<g id="XMLID_124_">
				<line id="XMLID_129_" class="st21" x1="539.1999893188477" y1="452.300048828125" x2="539.1999893188477" y2="435.800048828125"/>
				<line id="XMLID_128_" class="st21" x1="550.9999771118164" y1="452.300048828125" x2="550.9999771118164" y2="443.70001220703125"/>
				<line id="XMLID_126_" class="st21" x1="572.6999893188477" y1="452.300048828125" x2="572.6999893188477" y2="443.70001220703125"/>
				<line id="XMLID_125_" class="st21" x1="561.8000259399414" y1="452.300048828125" x2="561.8000259399414" y2="440.300048828125"/>
			</g>
			<g id="XMLID_99_">
				<line id="XMLID_123_" class="st21" x1="494.19998931884766" y1="452.300048828125" x2="494.19998931884766" y2="435.800048828125"/>
				<line id="XMLID_117_" class="st21" x1="505.9999771118164" y1="452.300048828125" x2="505.9999771118164" y2="443.70001220703125"/>
				<line id="XMLID_111_" class="st21" x1="527.6999893188477" y1="452.300048828125" x2="527.6999893188477" y2="443.70001220703125"/>
				<line id="XMLID_105_" class="st21" x1="516.8000259399414" y1="452.300048828125" x2="516.8000259399414" y2="440.300048828125"/>
			</g>
			<g id="XMLID_74_">
				<line id="XMLID_98_" class="st21" x1="449.19998931884766" y1="452.300048828125" x2="449.19998931884766" y2="435.800048828125"/>
				<line id="XMLID_92_" class="st21" x1="460.9999771118164" y1="452.300048828125" x2="460.9999771118164" y2="443.70001220703125"/>
				<line id="XMLID_86_" class="st21" x1="482.69998931884766" y1="452.300048828125" x2="482.69998931884766" y2="443.70001220703125"/>
				<line id="XMLID_80_" class="st21" x1="471.8000259399414" y1="452.300048828125" x2="471.8000259399414" y2="440.300048828125"/>
			</g>
		</g>
		<g id="XMLID_5_">
			<g id="XMLID_177_">
				<line id="XMLID_181_" class="st21" x1="774.9203229492188" y1="232.72487653808594" x2="758.4332271972656" y2="234.66043369140624" points="null" d="null" stroke-width="0"/>
				<line id="XMLID_180_" class="st21" x1="773.532780102539" y1="220.90577229003907" x2="764.8919279785156" y2="221.92019371337892" points="null" d="null" stroke-width="0"/>
				<line id="XMLID_179_" class="st21" x1="771.0142229492187" y1="199.45267653808594" x2="762.3733708251953" y2="200.4670979614258" points="null" d="null" stroke-width="0"/>
				<line id="XMLID_178_" class="st21" x1="772.2735015258789" y1="210.1792244140625" x2="760.2558057739258" y2="211.5900815673828" points="null" d="null" stroke-width="0"/>
			</g>
			<g id="XMLID_172_">
				<line id="XMLID_176_" class="st21" x1="784.4000015258789" y1="297.10003662109375" x2="767.8000259399414" y2="297.10003662109375"/>
				<line id="XMLID_175_" class="st21" x1="784.4000015258789" y1="285.20001220703125" x2="775.6999893188477" y2="285.20001220703125"/>
				<line id="XMLID_174_" class="st21" x1="784.4000015258789" y1="263.60003662109375" x2="775.6999893188477" y2="263.60003662109375"/>
				<line id="XMLID_173_" class="st21" x1="784.4000015258789" y1="274.4000244140625" x2="772.3000259399414" y2="274.4000244140625"/>
			</g>
			<g id="XMLID_167_">
				<line id="XMLID_171_" class="st21" x1="784.4000015258789" y1="342.10003662109375" x2="767.8000259399414" y2="342.10003662109375"/>
				<line id="XMLID_170_" class="st21" x1="784.4000015258789" y1="330.20001220703125" x2="775.6999893188477" y2="330.20001220703125"/>
				<line id="XMLID_169_" class="st21" x1="784.4000015258789" y1="308.60003662109375" x2="775.6999893188477" y2="308.60003662109375"/>
				<line id="XMLID_168_" class="st21" x1="784.4000015258789" y1="319.4000244140625" x2="772.3000259399414" y2="319.4000244140625"/>
			</g>
			<g id="XMLID_162_">
				<line id="XMLID_166_" class="st21" x1="784.4000015258789" y1="387.10003662109375" x2="767.8000259399414" y2="387.10003662109375"/>
				<line id="XMLID_165_" class="st21" x1="784.4000015258789" y1="375.20001220703125" x2="775.6999893188477" y2="375.20001220703125"/>
				<line id="XMLID_164_" class="st21" x1="784.4000015258789" y1="353.60003662109375" x2="775.6999893188477" y2="353.60003662109375"/>
				<line id="XMLID_163_" class="st21" x1="784.4000015258789" y1="364.4000244140625" x2="772.3000259399414" y2="364.4000244140625"/>
			</g>
			<g id="XMLID_157_">
				<line id="XMLID_161_" class="st21" x1="784.4000015258789" y1="432.10003662109375" x2="767.8000259399414" y2="432.10003662109375"/>
				<line id="XMLID_160_" class="st21" x1="784.4000015258789" y1="420.20001220703125" x2="775.6999893188477" y2="420.20001220703125"/>
				<line id="XMLID_159_" class="st21" x1="784.4000015258789" y1="398.60003662109375" x2="775.6999893188477" y2="398.60003662109375"/>
				<line id="XMLID_158_" class="st21" x1="784.4000015258789" y1="409.4000244140625" x2="772.3000259399414" y2="409.4000244140625"/>
			</g>
		</g>
	</g>
</g><g id="svg_3" class="">
	<g id="XMLID_215_">
		<path id="XMLID_214_" class="st4" d="M418.44780152587884,356.25090441406246 H280.6719013978789 c-5.86519,0 -10.636869999999998,-4.77168 -10.636869999999998,-10.636869999999998 v-55.27196 c0,-5.86519 4.77168,-10.636869999999998 10.636869999999998,-10.636869999999998 h140.36692 c5.86519,0 10.636869999999998,4.77168 10.636869999999998,10.636869999999998 v55.27196 C429.60355152587897,352.6358944140625 424.31299152587883,356.88869441406246 418.44780152587884,356.25090441406246 z"/>
		<path id="XMLID_213_" class="st4" d="M390.2000015258789,385.60002441406255 h-94.7 c-3,0 -5.5,-2.5 -5.5,-5.5 v-79.7 c0,-3 2.5,-5.5 5.5,-5.5 h94.7 c3,0 5.5,2.5 5.5,5.5 v79.7 C395.7000015258789,383.10002441406255 393.3000015258789,385.60002441406255 390.2000015258789,385.60002441406255 z"/>
	</g>
	<path id="XMLID_186_" class="st7" d="M412.8000015258789,369.3000244140625 H271.7000015258789 c-5.9,0 -10.7,-4.8 -10.7,-10.7 v-55.6 c0,-5.9 4.8,-10.7 10.7,-10.7 h141.2 c5.9,0 10.7,4.8 10.7,10.7 v55.6 C423.50000152587893,364.5000244140625 418.70000152587886,369.3000244140625 412.8000015258789,369.3000244140625 z"/>
	<path id="XMLID_234_" class="st6" d="M386.00000152587893,369.3000244140625 h-104 c-5.9,0 -10.7,-4.8 -10.7,-10.7 v-55.6 c0,-5.9 4.8,-10.7 10.7,-10.7 h104 c5.9,0 10.7,4.8 10.7,10.7 v55.6 C396.7000015258789,364.5000244140625 391.9000015258789,369.3000244140625 386.00000152587893,369.3000244140625 z"/>
	<path id="XMLID_49_" class="st5" d="M412.8000015258789,369.3000244140625 H271.7000015258789 c-5.9,0 -10.7,-4.8 -10.7,-10.7 v-55.6 c0,-5.9 4.8,-10.7 10.7,-10.7 h141.2 c5.9,0 10.7,4.8 10.7,10.7 v55.6 C423.50000152587893,364.5000244140625 418.70000152587886,369.3000244140625 412.8000015258789,369.3000244140625 z"/>
	<path id="XMLID_187_" class="st22" d="M381.2000015258789,375.60002441406255 h-94.7 c-3,0 -5.5,-2.5 -5.5,-5.5 v-79.7 c0,-3 2.5,-5.5 5.5,-5.5 h94.7 c3,0 5.5,2.5 5.5,5.5 v79.7 C386.7000015258789,373.10002441406255 384.3000015258789,375.60002441406255 381.2000015258789,375.60002441406255 z"/>
	<path id="XMLID_229_" class="st23" d="M381.2000015258789,375.60002441406255 h-94.7 c-3,0 -5.5,-2.5 -5.5,-5.5 v-1.3 c0,-3 2.5,-5.5 5.5,-5.5 h94.7 c3,0 5.5,2.5 5.5,5.5 v1.3 C386.7000015258789,373.10002441406255 384.3000015258789,375.60002441406255 381.2000015258789,375.60002441406255 z"/>
	<path id="XMLID_236_" class="st24" d="M381.2000015258789,298.5000244140625 h-94.7 c-3,0 -5.5,-2.5 -5.5,-5.5 v-1.3 c0,-3 2.5,-5.5 5.5,-5.5 h94.7 c3,0 5.5,2.5 5.5,5.5 v1.3 C386.7000015258789,296.0000244140625 384.3000015258789,298.5000244140625 381.2000015258789,298.5000244140625 z"/>
	<path id="XMLID_60_" class="st5" d="M381.2000015258789,375.60002441406255 h-94.7 c-3,0 -5.5,-2.5 -5.5,-5.5 v-79.7 c0,-3 2.5,-5.5 5.5,-5.5 h94.7 c3,0 5.5,2.5 5.5,5.5 v79.7 C386.7000015258789,373.10002441406255 384.3000015258789,375.60002441406255 381.2000015258789,375.60002441406255 z"/>
	<line id="XMLID_207_" class="st25" x1="302.4000015258789" y1="313.20001220703125" x2="357.4000015258789" y2="313.20001220703125"/>
	<line id="XMLID_208_" class="st25" x1="302.4000015258789" y1="330.800048828125" x2="325.4000015258789" y2="330.800048828125"/>
</g></g></svg>