<svg xmlns="http://www.w3.org/2000/svg" xmlns:xlink="http://www.w3.org/1999/xlink" version="1.1" xml:space="preserve" width="638" height="321"><rect id="backgroundrect" width="100%" height="100%" x="0" y="0" fill="none" stroke="none"/>
<style type="text/css">
	.st0{fill:#EAECEF;}
	.st1{fill:#2D425E;}
	.st2{fill:#C9C9C9;}
	.st3{fill:#CECECE;}
	.st4{fill:#FFFFFF;}
	.st5{fill:none;stroke:#1F3969;stroke-width:4;stroke-linecap:round;stroke-linejoin:round;stroke-miterlimit:10;}
	.st6{fill:#FF3E3E;}
	.st7{opacity:0.28;fill:#1F3969;stroke:#1F3969;stroke-width:4;stroke-linecap:round;stroke-linejoin:round;stroke-miterlimit:10;}
	.st8{fill:#50B56F;}
	.st9{fill:#5F5AFF;}
	.st10{fill:#F6F9FD;}
	.st11{fill:#BFCFE2;}
	.st12{fill:#D0DDF0;}
	.st13{fill:#2AA1FF;}
	.st14{opacity:0.34;fill:none;stroke:#FFFFFF;stroke-width:2;stroke-linecap:round;stroke-linejoin:round;stroke-miterlimit:10;}
	.st15{opacity:0.34;}
	.st16{fill:none;stroke:#FFFFFF;stroke-width:2;stroke-linecap:round;stroke-linejoin:round;stroke-miterlimit:10;}
	.st17{fill:#1F3969;}
	.st18{fill:none;stroke:#FFFFFF;stroke-width:4;stroke-linecap:round;stroke-linejoin:round;stroke-miterlimit:10;}
	.st19{fill:none;stroke:#7BFFA0;stroke-width:4;stroke-linecap:round;stroke-linejoin:round;stroke-miterlimit:10;}
	.st20{fill:none;stroke:#9169FF;stroke-width:4;stroke-linecap:round;stroke-linejoin:round;stroke-miterlimit:10;}
	.st21{fill:none;stroke:#FFC47D;stroke-width:4;stroke-linecap:round;stroke-linejoin:round;stroke-miterlimit:10;}
	.st22{fill:none;stroke:#FF5757;stroke-width:4;stroke-linecap:round;stroke-linejoin:round;stroke-miterlimit:10;}
	.st23{fill:#FFA364;}
	.st24{fill:#FF5252;}
	.st25{fill:#6567C3;}
</style>




<g class="currentLayer" style=""><title>Layer 1</title><g id="XMLID_34_" class="">
	<path id="XMLID_223_" class="st2" d="M629.3000030517578,320.69999389648433 H9.000003051757801 c-5,0 -9,-4 -9,-9 v0 c0,-5 4,-9 9,-9 h620.3 c5,0 9,4 9,9 v0 C638.3000030517578,316.69999389648433 634.3000030517578,320.69999389648433 629.3000030517578,320.69999389648433 z"/>
	<g id="XMLID_19_">
		<g id="XMLID_163_">
			<path id="XMLID_178_" class="st3" d="M125.70000305175779,227.69999389648433 c-9.6,0 -17.3,-7.8 -17.3,-17.3 s7.8,-17.3 17.3,-17.3 h98 v34.7 H125.70000305175779 z"/>
			<path id="XMLID_162_" class="st4" d="M229.40000305175784,233.69999389648433 H125.70000305175779 c-12.9,0 -23.3,-10.5 -23.3,-23.3 l0,0 c0,-12.9 10.5,-23.3 23.3,-23.3 h103.7 V233.69999389648433 z"/>
			<line id="XMLID_164_" class="st5" x1="119.30000305175781" y1="204.99996948242188" x2="223.6999969482422" y2="204.99996948242188"/>
			<line id="XMLID_173_" class="st5" x1="119.30000305175781" y1="215.60000610351562" x2="223.6999969482422" y2="215.60000610351562"/>
			<path id="XMLID_179_" class="st5" d="M125.70000305175779,227.69999389648433 c-9.6,0 -17.3,-7.8 -17.3,-17.3 s7.8,-17.3 17.3,-17.3 h98 v34.7 H125.70000305175779 z"/>
			<path id="XMLID_161_" class="st6" d="M125.70000305175779,227.69999389648433 c-9.6,0 -17.3,-7.8 -17.3,-17.3 s7.8,-17.3 17.3,-17.3 h99.7 l4,-6 H125.70000305175779 c-12.9,0 -23.3,10.5 -23.3,23.3 v0 c0,12.9 10.5,23.3 23.3,23.3 h103.7 l-4,-6 H125.70000305175779 z"/>
			<path id="XMLID_182_" class="st5" d="M125.70000305175779,227.69999389648433 c-9.6,0 -17.3,-7.8 -17.3,-17.3 s7.8,-17.3 17.3,-17.3 h99.7 l4,-6 H125.70000305175779 c-12.9,0 -23.3,10.5 -23.3,23.3 v0 c0,12.9 10.5,23.3 23.3,23.3 h103.7 l-4,-6 H125.70000305175779 z"/>
			<rect id="XMLID_224_" x="188.6999969482422" y="186.99996948242188" class="st7" width="18.399999618530273" height="46.70000076293945"/>
		</g>
		<g id="XMLID_160_">
			<path id="XMLID_157_" class="st8" d="M218.7000030517578,272.19999389648433 H28.800003051757812 c-3.7,0 -6.8,-3 -6.8,-6.8 v-25 c0,-3.7 3,-6.8 6.8,-6.8 h189.9 c3.7,0 6.8,3 6.8,6.8 v25 C225.5000030517578,269.19999389648433 222.5000030517578,272.19999389648433 218.7000030517578,272.19999389648433 z"/>
			<g id="svg_1">
				<path class="st4" d="M80.10000305175782,254.19999389648433 h-2.6 v5.5 H75.80000305175781 V246.39999389648438 h4.3 c3.1,0 4.6,1.7000000000000002 4.6,3.9 C84.70000305175782,252.29999389648435 83.4000030517578,254.19999389648433 80.10000305175782,254.19999389648433 zM80.10000305175782,252.69999389648433 c2,0 2.8,-0.9 2.8,-2.4 c0,-1.5 -0.8,-2.5 -2.8,-2.5 h-2.6 v4.9 H80.10000305175782 z" id="svg_2"/>
				<path class="st4" d="M89.5000030517578,246.39999389648438 h1.9 l3.3,6.7 l3.3,-6.7 h1.9 l-4.3,8.3 v5 h-1.7000000000000002 v-5 L89.5000030517578,246.39999389648438 z" id="svg_3"/>
				<path class="st4" d="M104.70000305175779,246.39999389648438 h9 v1.4 h-3.6 v11.9 h-1.7000000000000002 v-11.9 h-3.6 V246.39999389648438 z" id="svg_4"/>
				<path class="st4" d="M128.2000030517578,253.69999389648433 h-6.8 v6 h-1.7000000000000002 V246.39999389648438 h1.7000000000000002 v5.8 h6.8 V246.39999389648438 h1.7000000000000002 v13.3 h-1.7000000000000002 V253.69999389648433 z" id="svg_5"/>
				<path class="st4" d="M142.7000030517578,259.79999389648435 c-3.7,0 -6.7,-2.8 -6.7,-6.8 c0,-4 2.9,-6.8 6.7,-6.8 c3.8,0 6.7,2.8 6.7,6.8 C149.3000030517578,256.9999938964844 146.40000305175784,259.79999389648435 142.7000030517578,259.79999389648435 zM142.7000030517578,258.29999389648435 c2.8,0 4.9,-2 4.9,-5.3 c0,-3.3 -2.1,-5.3 -4.9,-5.3 s-4.9,2 -4.9,5.3 C137.8000030517578,256.29999389648435 139.90000305175784,258.29999389648435 142.7000030517578,258.29999389648435 z" id="svg_6"/>
				<path class="st4" d="M165.90000305175784,246.39999389648438 v13.3 h-1.7000000000000002 l-7,-10.6 v10.6 h-1.7000000000000002 V246.39999389648438 h1.7000000000000002 l7,10.5 V246.39999389648438 H165.90000305175784 z" id="svg_7"/>
			</g>
			<path id="XMLID_146_" class="st5" d="M218.7000030517578,272.19999389648433 H28.800003051757812 c-3.7,0 -6.8,-3 -6.8,-6.8 v-25 c0,-3.7 3,-6.8 6.8,-6.8 h189.9 c3.7,0 6.8,3 6.8,6.8 v25 C225.5000030517578,269.19999389648433 222.5000030517578,272.19999389648433 218.7000030517578,272.19999389648433 z"/>
		</g>
		<path id="XMLID_246_" class="st7" d="M218.7000030517578,233.69999389648433 h-30 v15 c0,9.4 7.6,17.1 17.1,17.1 h19.7 c0,-0.1 0,-0.2 0,-0.30000000000000004 v-25 C225.5000030517578,236.69999389648433 222.5000030517578,233.69999389648433 218.7000030517578,233.69999389648433 z"/>
		<path id="XMLID_35_" class="st3" d="M272.2000030517578,279.9999938964844 H52.20000305175782 c1.3,3.2 2,7.2 2,11.4 c0,4.2 -0.7000000000000001,8.1 -2,11.4 h219.9 c-1.3,-3.2 -2,-7.2 -2,-11.4 C270.2000030517578,287.0999938964844 270.90000305175784,283.19999389648433 272.2000030517578,279.9999938964844 z"/>
		<rect id="XMLID_156_" x="46.30000305175781" y="273.8999938964844" class="st9" width="231.89999389648438" height="6"/>
		<rect id="XMLID_32_" x="46.30000305175781" y="273.8999938964844" class="st5" width="231.89999389648438" height="6"/>
		<rect id="XMLID_147_" x="46.30000305175781" y="302.6999816894531" class="st10" width="231.89999389648438" height="6"/>
		<rect id="XMLID_39_" x="46.30000305175781" y="302.6999816894531" class="st9" width="231.89999389648438" height="6"/>
		<rect id="XMLID_37_" x="46.30000305175781" y="302.6999816894531" class="st5" width="231.89999389648438" height="6"/>
		<path id="XMLID_69_" class="st11" d="M393.40000305175784,287.3999938964844 l-3,-33.7 h-49.4 l-3,33.7 c-0.7000000000000001,7.8 -5.4,15.3 -12.8,21.3 l0,0.1 h81 l0,-0.1 C398.8000030517578,302.69999389648433 394.10000305175777,295.19999389648433 393.40000305175784,287.3999938964844 z"/>
		<polygon id="XMLID_33_" class="st7" points="341.00001525878906,253.69998168945312 339.1999969482422,273.8999938964844 392.2000274658203,273.8999938964844 390.3999786376953,253.69998168945312 "/>
		<path id="XMLID_10_" class="st5" d="M393.40000305175784,287.3999938964844 l-3,-33.7 h-49.4 l-3,33.7 c-0.7000000000000001,7.8 -5.4,15.3 -12.8,21.3 l0,0.1 h81 l0,-0.1 C398.8000030517578,302.69999389648433 394.10000305175777,295.19999389648433 393.40000305175784,287.3999938964844 z"/>
		<path id="XMLID_13_" class="st4" d="M523.7000030517578,258.69999389648433 h-316 c-6.6,0 -12,-5.4 -12,-12 v-206 c0,-6.6 5.4,-12 12,-12 h316 c6.6,0 12,5.4 12,12 v206 C535.7000030517578,253.39999389648438 530.3000030517578,258.69999389648433 523.7000030517578,258.69999389648433 z"/>
		<path id="XMLID_63_" class="st11" d="M523.7000030517578,258.69999389648433 h-316 c-6.6,0 -12,-5.4 -12,-12 v-206 c0,-6.6 5.4,-12 12,-12 h316 c6.6,0 12,5.4 12,12 v206 C535.7000030517578,253.39999389648438 530.3000030517578,258.69999389648433 523.7000030517578,258.69999389648433 z"/>
		<path id="XMLID_4_" class="st5" d="M523.7000030517578,258.69999389648433 h-316 c-6.6,0 -12,-5.4 -12,-12 v-206 c0,-6.6 5.4,-12 12,-12 h316 c6.6,0 12,5.4 12,12 v206 C535.7000030517578,253.39999389648438 530.3000030517578,258.69999389648433 523.7000030517578,258.69999389648433 z"/>
		
			<rect id="XMLID_68_" x="93" y="485.8000030517578" transform="matrix(-1.83697e-16,1,-1,-1.83697e-16,1004.5556,-47.2719) " class="st10" width="174.60000610351562" height="306"/>
		<path id="XMLID_197_" class="st7" d="M223.7000030517578,28.699993896484386 v138.6 c0,4.4 3.6,8 8,8 H420.8000030517578 c4.4,0 8,-3.6 8,-8 V28.699993896484386 H223.7000030517578 z"/>
		
			<rect id="XMLID_11_" x="93" y="485.8000030517578" transform="matrix(-1.83697e-16,1,-1,-1.83697e-16,1004.5556,-47.2719) " class="st5" width="174.60000610351562" height="306"/>
		<line id="XMLID_9_" class="st5" x1="352.3000030517578" y1="239.39999389648438" x2="379.2000274658203" y2="239.39999389648438"/>
		<path id="XMLID_15_" class="st1" d="M429.8000030517578,164.29999389648435 H240.7000030517578 c-4.4,0 -8,-3.6 -8,-8 V8.099993896484364 c0,-4.4 3.6,-8 8,-8 H429.8000030517578 c4.4,0 8,3.6 8,8 v148.3 C437.8000030517578,160.79999389648435 434.2000030517578,164.29999389648435 429.8000030517578,164.29999389648435 z"/>
		<path id="XMLID_17_" class="st5" d="M437.8000030517578,19.499993896484398 H232.7000030517578 v-11.5 c0,-4.4 3.6,-8 8,-8 H429.8000030517578 c4.4,0 8,3.6 8,8 V19.499993896484398 z"/>
		<path id="XMLID_23_" class="st12" d="M437.8000030517578,23.299993896484352 H232.7000030517578 v-15.3 c0,-4.4 3.6,-8 8,-8 H429.8000030517578 c4.4,0 8,3.6 8,8 V23.299993896484352 z"/>
		<path id="XMLID_18_" class="st5" d="M437.8000030517578,23.299993896484352 H232.7000030517578 v-15.3 c0,-4.4 3.6,-8 8,-8 H429.8000030517578 c4.4,0 8,3.6 8,8 V23.299993896484352 z"/>
		<path id="XMLID_20_" class="st5" d="M437.8000030517578,23.299993896484352 H232.7000030517578 v-15.3 c0,-4.4 3.6,-8 8,-8 H429.8000030517578 c4.4,0 8,3.6 8,8 V23.299993896484352 z"/>
		<path id="XMLID_12_" class="st5" d="M429.8000030517578,164.29999389648435 H240.7000030517578 c-4.4,0 -8,-3.6 -8,-8 V8.099993896484364 c0,-4.4 3.6,-8 8,-8 H429.8000030517578 c4.4,0 8,3.6 8,8 v148.3 C437.8000030517578,160.79999389648435 434.2000030517578,164.29999389648435 429.8000030517578,164.29999389648435 z"/>
		<g id="XMLID_72_">
			<path id="XMLID_7_" class="st7" d="M528.5000030517579,199.69999389648433 h-116 c-4.4,0 -8,-3.6 -8,-8 V68.79999389648435 c0,-4.4 3.6,-8 8,-8 h116 c4.4,0 8,3.6 8,8 v122.9 C536.5000030517579,196.19999389648433 532.9000030517578,199.69999389648433 528.5000030517579,199.69999389648433 z"/>
			<path id="XMLID_16_" class="st13" d="M536.5000030517579,192.69999389648433 h-116 c-4.4,0 -8,-3.6 -8,-8 V61.79999389648435 c0,-4.4 3.6,-8 8,-8 h116 c4.4,0 8,3.6 8,8 v122.9 C544.5000030517579,189.19999389648433 540.9000030517578,192.69999389648433 536.5000030517579,192.69999389648433 z"/>
			<path id="XMLID_14_" class="st5" d="M536.5000030517579,192.69999389648433 h-116 c-4.4,0 -8,-3.6 -8,-8 V61.79999389648435 c0,-4.4 3.6,-8 8,-8 h116 c4.4,0 8,3.6 8,8 v122.9 C544.5000030517579,189.19999389648433 540.9000030517578,192.69999389648433 536.5000030517579,192.69999389648433 z"/>
			<path id="XMLID_75_" class="st14" d="M519.2000030517578,91.89999389648438 h-81.6 c-2.9,0 -5.2,-2.3 -5.2,-5.2 v-7.8 c0,-2.9 2.3,-5.2 5.2,-5.2 h81.6 c2.9,0 5.2,2.3 5.2,5.2 v7.8 C524.4000030517578,89.59999389648436 522.1000030517578,91.89999389648438 519.2000030517578,91.89999389648438 z"/>
			<g id="XMLID_143_" class="st15">
				<path id="XMLID_78_" class="st16" d="M483.40000305175784,121.19999389648439 h-45.6 c-2.9,0 -5.2,-2.3 -5.2,-5.2 v-7.8 c0,-2.9 2.3,-5.2 5.2,-5.2 h45.6 c2.9,0 5.2,2.3 5.2,5.2 v7.8 C488.50000305175786,118.89999389648438 486.2000030517578,121.19999389648439 483.40000305175784,121.19999389648439 z"/>
				<path id="XMLID_79_" class="st16" d="M519.3000030517578,121.19999389648439 h-17.7 c-2.9,0 -5.2,-2.3 -5.2,-5.2 v-7.8 c0,-2.9 2.3,-5.2 5.2,-5.2 h17.7 c2.9,0 5.2,2.3 5.2,5.2 v7.8 C524.5000030517579,118.89999389648438 522.2000030517578,121.19999389648439 519.3000030517578,121.19999389648439 z"/>
			</g>
			<g id="XMLID_76_">
				<line id="XMLID_135_" class="st16" x1="432.50001525878906" y1="151.60000610351562" x2="524.3999786376953" y2="151.60000610351562"/>
				<line id="XMLID_136_" class="st16" x1="432.50001525878906" y1="162.39999389648438" x2="524.3999786376953" y2="162.39999389648438"/>
				<line id="XMLID_138_" class="st16" x1="432.50001525878906" y1="173.19998168945312" x2="488.50001525878906" y2="173.19998168945312"/>
			</g>
		</g>
		<circle id="XMLID_24_" class="st17" cx="252.8000030517578" cy="11.699981689453125" r="4"/>
		<circle id="XMLID_28_" class="st17" cx="266.6999969482422" cy="11.699981689453125" r="4"/>
		<circle id="XMLID_38_" class="st17" cx="280.59999084472656" cy="11.699981689453125" r="4"/>
		<g id="XMLID_61_">
			<line id="XMLID_54_" class="st18" x1="350.50001525878906" y1="41.79998779296875" x2="363.50001525878906" y2="41.79998779296875"/>
			<line id="XMLID_66_" class="st19" x1="284.59999084472656" y1="41.79998779296875" x2="340.90000915527344" y2="41.79998779296875"/>
			<line id="XMLID_29_" class="st20" x1="256.8000030517578" y1="41.79998779296875" x2="276.59999084472656" y2="41.79998779296875"/>
		</g>
		<g id="XMLID_42_">
			<line id="XMLID_62_" class="st20" x1="282.59999084472656" y1="140.29998779296875" x2="325.59999084472656" y2="140.29998779296875"/>
			<line id="XMLID_30_" class="st19" x1="256.8000030517578" y1="140.29998779296875" x2="270.6999969482422" y2="140.29998779296875"/>
		</g>
		<g id="XMLID_27_">
			<line id="XMLID_60_" class="st18" x1="340.90000915527344" y1="54.100006103515625" x2="349.00001525878906" y2="54.100006103515625"/>
			<line id="XMLID_45_" class="st20" x1="304.09999084472656" y1="54.100006103515625" x2="331.3000030517578" y2="54.100006103515625"/>
			<line id="XMLID_47_" class="st21" x1="266.6999969482422" y1="54.100006103515625" x2="294.40000915527344" y2="54.100006103515625"/>
		</g>
		<g id="XMLID_49_">
			<line id="XMLID_59_" class="st18" x1="309.59999084472656" y1="66.39999389648438" x2="333.50001525878906" y2="66.39999389648438"/>
			<line id="XMLID_50_" class="st22" x1="279.59999084472656" y1="66.39999389648438" x2="302.09999084472656" y2="66.39999389648438"/>
		</g>
		<g id="XMLID_65_">
			<line id="XMLID_58_" class="st18" x1="312.8000030517578" y1="78.69998168945312" x2="317.6999969482422" y2="78.69998168945312"/>
			<line id="XMLID_70_" class="st20" x1="293.00001525878906" y1="78.69998168945312" x2="304.09999084472656" y2="78.69998168945312"/>
			<line id="XMLID_67_" class="st19" x1="266.6999969482422" y1="78.69998168945312" x2="284.59999084472656" y2="78.69998168945312"/>
		</g>
		<g id="XMLID_73_">
			<line id="XMLID_77_" class="st21" x1="305.09999084472656" y1="91.10000610351562" x2="337.00001525878906" y2="91.10000610351562"/>
			<line id="XMLID_74_" class="st22" x1="266.6999969482422" y1="91.10000610351562" x2="295.3000030517578" y2="91.10000610351562"/>
		</g>
		<g id="XMLID_80_">
			<line id="XMLID_64_" class="st20" x1="342.00001525878906" y1="103.39999389648438" x2="359.3000030517578" y2="103.39999389648438"/>
			<line id="XMLID_84_" class="st22" x1="305.09999084472656" y1="103.39999389648438" x2="332.8000030517578" y2="103.39999389648438"/>
			<line id="XMLID_81_" class="st19" x1="279.59999084472656" y1="103.39999389648438" x2="295.3000030517578" y2="103.39999389648438"/>
		</g>
		<g id="XMLID_87_">
			<line id="XMLID_95_" class="st18" x1="317.6999969482422" y1="115.69998168945312" x2="332.8000030517578" y2="115.69998168945312"/>
			<line id="XMLID_90_" class="st20" x1="279.59999084472656" y1="115.69998168945312" x2="307.3000030517578" y2="115.69998168945312"/>
		</g>
		<g id="XMLID_98_">
			<line id="XMLID_71_" class="st18" x1="357.00001525878906" y1="128" x2="374.3000030517578" y2="128"/>
			<line id="XMLID_102_" class="st21" x1="304.09999084472656" y1="128" x2="347.59999084472656" y2="128"/>
			<line id="XMLID_99_" class="st18" x1="266.6999969482422" y1="128" x2="294.40000915527344" y2="128"/>
		</g>
		<line id="XMLID_145_" class="st5" x1="54.69999694824219" y1="286.8999938964844" x2="270.1999969482422" y2="286.8999938964844"/>
		<line id="XMLID_151_" class="st5" x1="54.69999694824219" y1="294.8999938964844" x2="270.1999969482422" y2="294.8999938964844"/>
		<path id="XMLID_158_" class="st5" d="M272.2000030517578,279.9999938964844 H52.20000305175782 c1.3,3.2 2,7.2 2,11.4 c0,4.2 -0.7000000000000001,8.1 -2,11.4 h219.9 c-1.3,-3.2 -2,-7.2 -2,-11.4 C270.2000030517578,287.0999938964844 270.90000305175784,283.19999389648433 272.2000030517578,279.9999938964844 z"/>
	</g>
	<g id="XMLID_222_">
		<g id="XMLID_174_">
			
				<rect id="XMLID_177_" x="603.9912777397248" y="182.48590671800548" transform="matrix(0.9932,-0.1166,0.1166,0.9932,-62.746,88.7942) " class="st23" width="9.800000190734863" height="72.5999984741211"/>
			
				<rect id="XMLID_31_" x="600.191289946756" y="182.78589451097417" transform="matrix(0.9932,-0.1166,0.1166,0.9932,-58.9937,88.1297) " class="st13" width="9.800000190734863" height="7.400000095367432"/>
			
				<rect id="XMLID_217_" x="600.191289946756" y="182.78589451097417" transform="matrix(0.9932,-0.1166,0.1166,0.9932,-58.9937,88.1297) " class="st5" width="9.800000190734863" height="7.400000095367432"/>
			
				<rect id="XMLID_22_" x="603.9912777397248" y="182.48590671800548" transform="matrix(0.9932,-0.1166,0.1166,0.9932,-62.746,88.7942) " class="st5" width="9.800000190734863" height="72.5999984741211"/>
		</g>
		<g id="XMLID_189_">
			
				<rect id="XMLID_218_" x="544.7701989865172" y="231.8306646767753" transform="matrix(0.9941,0.1081,-0.1081,0.9941,68.6015,-77.1711) " class="st24" width="9.800000190734862" height="72.59999847412108"/>
			
				<rect id="XMLID_214_" x="544.7701989865172" y="231.8306646767753" transform="matrix(0.9941,0.1081,-0.1081,0.9941,68.6015,-77.1711) " class="st5" width="9.800000190734862" height="72.59999847412108"/>
			
				<rect id="XMLID_220_" x="548.3701745724547" y="232.03067688380656" transform="matrix(0.9941,0.1081,-0.1081,0.9941,65.1167,-77.742) " class="st1" width="9.800000190734862" height="7.400000095367431"/>
			
				<rect id="XMLID_211_" x="548.3701745724547" y="232.03067688380656" transform="matrix(0.9941,0.1081,-0.1081,0.9941,65.1167,-77.742) " class="st5" width="9.800000190734862" height="7.400000095367431"/>
		</g>
		<polygon id="XMLID_26_" class="st25" points="600.8999786376953,308.9999694824219 561.5999908447266,308.9999694824219 555.2000274658203,248.80001831054688 607.3000030517578,248.80001831054688 "/>
		<polygon id="XMLID_233_" class="st25" points="555.2000274658203,248.80001831054688 555.3000030517578,249.89999389648438 595.0000152587891,249.89999389648438 588.7000274658203,308.9999694824219 600.8999786376953,308.9999694824219 607.3000030517578,248.80001831054688 "/>
		<polygon id="XMLID_21_" class="st5" points="600.8999786376953,308.9999694824219 561.5999908447266,308.9999694824219 555.2000274658203,248.80001831054688 607.3000030517578,248.80001831054688 "/>
	</g>
</g></g></svg>